<?xml version="1.0" encoding="UTF-8" standalone="no"?>
<!-- Created with Inkscape (http://www.inkscape.org/) -->

<svg
   width="155.92168mm"
   height="95.972595mm"
   viewBox="0 0 155.92168 95.972596"
   version="1.1"
   id="svg5"
   inkscape:version="1.1.1 (3bf5ae0d25, 2021-09-20)"
   sodipodi:docname="FKS Food.svg"
   xmlns:inkscape="http://www.inkscape.org/namespaces/inkscape"
   xmlns:sodipodi="http://sodipodi.sourceforge.net/DTD/sodipodi-0.dtd"
   xmlns="http://www.w3.org/2000/svg"
   xmlns:svg="http://www.w3.org/2000/svg">
  <sodipodi:namedview
     id="namedview7"
     pagecolor="#ffffff"
     bordercolor="#666666"
     borderopacity="1.0"
     inkscape:pageshadow="2"
     inkscape:pageopacity="0.0"
     inkscape:pagecheckerboard="0"
     inkscape:document-units="mm"
     showgrid="false"
     inkscape:zoom="0.33386194"
     inkscape:cx="83.867003"
     inkscape:cy="232.13188"
     inkscape:window-width="1366"
     inkscape:window-height="715"
     inkscape:window-x="-8"
     inkscape:window-y="-8"
     inkscape:window-maximized="1"
     inkscape:current-layer="layer1" />
  <defs
     id="defs2" />
  <g
     inkscape:label="Layer 1"
     inkscape:groupmode="layer"
     id="layer1"
     transform="translate(397.73837,270.32486)">
    <path
       style="fill:#e7b220;fill-opacity:1;stroke-width:1"
       d="m -322.36614,-174.3973 c -3.1619,-0.1254 -6.37785,-0.51033 -8.96797,-1.07346 -4.77901,-1.03899 -8.44724,-2.88307 -10.41551,-5.2361 -2.02753,-2.42388 -2.49027,-5.29751 -1.38522,-8.60246 0.57477,-1.71902 1.51037,-3.41814 2.92392,-5.31007 0.63006,-0.84327 1.19757,-1.51913 2.38176,-2.83646 3.38739,-3.76825 5.36648,-6.21937 6.9515,-8.60953 2.25042,-3.39356 3.39526,-6.16217 3.86236,-9.34048 0.11313,-0.76988 0.11129,-3.15953 -0.003,-3.96466 -0.48186,-3.39236 -1.83623,-6.6445 -4.30032,-10.32603 -1.30124,-1.94417 -2.63178,-3.62365 -5.09294,-6.42858 -7.02375,-8.00485 -11.20836,-14.58682 -12.76764,-20.08216 -0.63856,-2.25047 -0.79231,-4.39304 -0.44103,-6.14547 0.57123,-2.84958 2.47155,-4.99772 5.60575,-6.33671 1.97101,-0.84207 4.3145,-1.33791 7.46972,-1.58041 0.95317,-0.0733 4.49134,-0.0733 5.6222,-5e-5 5.53451,0.35845 11.21551,1.30726 18.05378,3.01523 13.64958,3.40919 27.53695,8.97368 39.28821,15.74229 10.92618,6.29337 19.43229,13.25419 25.07138,20.51669 2.30742,2.9717 4.21908,6.25472 5.42675,9.31972 0.60094,1.5251 0.95542,2.86273 1.18088,4.45581 0.10089,0.71297 0.11562,3.07992 0.0237,3.80786 -0.51437,4.07272 -2.35775,7.83548 -5.73914,11.71479 -0.60217,0.69085 -2.22022,2.33122 -3.02675,3.06855 -7.29367,6.66775 -19.05251,12.90456 -33.24044,17.63051 -10.60465,3.53238 -21.78866,5.91395 -30.48533,6.49171 -2.27991,0.15148 -5.74217,0.19886 -7.99652,0.10947 z"
       id="path1321" />
    <g
       id="g1301"
       transform="matrix(0.16940932,0,0,0.17157225,-330.35779,-224.82221)"
       style="fill:#4c4d4f;fill-opacity:1;stroke-width:5.86554">
      <g
         fill="#000000"
         fill-opacity="1"
         stroke="none"
         transform="matrix(0.32060098,0,0,0.31566261,-406.84342,-61.715241)"
         id="g50"
         style="fill:#4c4d4f;fill-opacity:1;fill-rule:evenodd;stroke-width:0.91323;stroke-linecap:square;stroke-linejoin:bevel">
        <path
           vector-effect="none"
           fill-rule="nonzero"
           d="M 328.5,62.2 H 34.6 c -3.4,0 -6.2,2.8 -6.2,6.2 v 490 c 0,3.4 2.8,6.2 6.2,6.2 h 78.1 c 3.4,0 6.2,-2.8 6.2,-6.2 V 367.9 h 170.3 c 3.4,0 6.2,-2.8 6.2,-6.2 v -78.2 c 0,-3.4 -2.8,-6.2 -6.2,-6.2 H 118.9 V 152.9 h 209.5 c 3.4,0 6.2,-2.8 6.2,-6.2 V 68.5 c 0.1,-3.5 -2.7,-6.3 -6.1,-6.3"
           id="path48"
           style="fill:#4c4d4f;fill-opacity:1;stroke-width:0.378599" />
      </g>
      <g
         fill="#000000"
         fill-opacity="1"
         stroke="none"
         transform="matrix(0.32060098,0,0,0.31566261,-406.84342,-61.715241)"
         id="g56"
         style="fill:#4c4d4f;fill-opacity:1;fill-rule:evenodd;stroke-width:0.91323;stroke-linecap:square;stroke-linejoin:bevel">
        <path
           vector-effect="none"
           fill-rule="nonzero"
           d="m 1012.2,272.7 c -49.6,-19.5 -92.4,-36.3 -92.4,-75.1 0,-41.6 39.2,-60.5 75.6,-60.5 36.6,0 69.7,13.7 91,25.1 2.6,1.4 5.8,0.8 7.7,-1.5 l 47.8,-56.9 c 1.1,-1.3 1.6,-3.1 1.4,-4.8 -0.2,-1.7 -1.2,-3.3 -2.6,-4.3 -22.2,-15.8 -70.5,-42.2 -143.9,-42.2 -48.3,0 -92.2,14.5 -123.6,40.9 -31.8,26.7 -48.6,63.3 -48.6,105.7 0,89.9 84.1,124.8 151.6,152.9 48.8,20.3 90.9,37.7 90.9,74.5 0,37.2 -29.4,61.3 -74.8,61.3 -47.1,0 -91,-24.4 -112.9,-39 -2.6,-1.7 -6.2,-1.2 -8.2,1.2 l -47.9,57.1 c -1.1,1.3 -1.6,3 -1.4,4.6 0.2,1.7 1,3.2 2.3,4.3 26.7,21.1 83.8,56.4 166.7,56.4 52.5,0 96.7,-15.5 127.7,-45 28.2,-26.7 43.7,-63.6 43.7,-103.9 C 1162.2,331.7 1079,299 1012.2,272.7"
           id="path54"
           style="fill:#4c4d4f;fill-opacity:1;stroke-width:0.378599" />
      </g>
      <g
         fill="#000000"
         fill-opacity="1"
         stroke="none"
         transform="matrix(0.32060098,0,0,0.31566261,-406.84342,-61.715241)"
         id="g62"
         style="fill:#4c4d4f;fill-opacity:1;fill-rule:evenodd;stroke-width:0.91323;stroke-linecap:square;stroke-linejoin:bevel">
        <path
           vector-effect="none"
           fill-rule="nonzero"
           d="m 798.7,66.1 c -1,-2.3 -3.2,-3.8 -5.7,-3.8 H 684 c -1.7,0 -3.2,0.6 -4.4,1.8 L 504.6,238 c -2.4,2.4 -2.4,6.3 -0.1,8.7 l 54.3,56.8 c 1.2,1.2 2.8,1.9 4.5,1.9 1.7,0 3.2,-0.7 4.4,-1.8 L 797.3,72.9 c 1.8,-1.8 2.3,-4.5 1.4,-6.8"
           id="path60"
           style="fill:#4c4d4f;fill-opacity:1;stroke-width:0.378599" />
      </g>
      <g
         fill="#000000"
         fill-opacity="1"
         stroke="none"
         transform="matrix(0.32060098,0,0,0.31566261,-406.84342,-61.715241)"
         id="g68"
         style="fill:#4c4d4f;fill-opacity:1;fill-rule:evenodd;stroke-width:0.91323;stroke-linecap:square;stroke-linejoin:bevel">
        <path
           vector-effect="none"
           fill-rule="nonzero"
           d="M 795.1,551.5 567.6,323.3 c -1.3,-1.3 -2.7,-1.9 -4.5,-1.8 -1.7,0 -3.3,0.7 -4.4,1.9 l -54.3,56.8 c -2.3,2.4 -2.3,6.3 0.1,8.7 l 172.8,171.3 c 1.2,1.2 2.7,1.8 4.4,1.8 h 108.9 c 2.5,0 4.8,-1.5 5.8,-3.8 1,-2.3 0.5,-4.9 -1.3,-6.7"
           id="path66"
           style="fill:#4c4d4f;fill-opacity:1;stroke-width:0.378599" />
      </g>
      <g
         fill="#000000"
         fill-opacity="1"
         stroke="none"
         transform="matrix(0.32060098,0,0,0.31566261,-406.84342,-61.715241)"
         id="g74"
         style="fill:#4c4d4f;fill-opacity:1;fill-rule:evenodd;stroke-width:0.91323;stroke-linecap:square;stroke-linejoin:bevel">
        <path
           vector-effect="none"
           fill-rule="nonzero"
           d="m 485.1,62.2 h -78.2 c -3.4,0 -6.2,2.8 -6.2,6.2 v 490 c 0,3.4 2.8,6.2 6.2,6.2 h 78.2 c 3.4,0 6.2,-2.8 6.2,-6.2 v -490 c 0,-3.4 -2.8,-6.2 -6.2,-6.2"
           id="path72"
           style="fill:#4c4d4f;fill-opacity:1;stroke-width:0.378599" />
      </g>
    </g>
    <path
       id="path1353"
       style="fill:#ffffff;stroke-width:1"
       d="m -277.5229,-204.69705 c 3.01652,-0.47043 5.26595,-2.04518 6.53188,-4.57275 0.41593,-0.8304 0.70255,-1.7706 0.86684,-2.84337 0.11002,-0.71841 0.11071,-2.24625 0.002,-2.95669 -0.38703,-2.51385 -1.55238,-4.52433 -3.44086,-5.93623 -2.01312,-1.50507 -4.76021,-2.09742 -7.36938,-1.58907 -2.40588,0.46874 -4.38803,1.80583 -5.72516,3.86201 -0.71483,1.09918 -1.20025,2.5214 -1.37269,4.02163 -0.0687,0.59804 -0.0301,2.19284 0.0672,2.77754 0.36408,2.18637 1.1367,3.74228 2.50815,5.05095 1.37503,1.31211 3.15578,2.05362 5.44633,2.26783 0.42267,0.0396 2.05193,-0.0141 2.48632,-0.0819 z m -2.30989,-4.19611 c -0.63857,-0.0566 -1.24825,-0.2253 -1.78917,-0.49512 -0.40445,-0.20173 -0.52716,-0.29141 -0.87537,-0.63978 -0.31162,-0.31177 -0.44924,-0.49088 -0.597,-0.77699 -0.35929,-0.69567 -0.52172,-1.3157 -0.58871,-2.24735 -0.16445,-2.28649 0.69049,-4.05869 2.34539,-4.86177 1.48092,-0.71866 3.4852,-0.65092 4.88228,0.16502 0.37038,0.21631 0.90783,0.71585 1.17892,1.09575 0.63891,0.89536 0.95777,2.27709 0.83235,3.60698 -0.12483,1.32394 -0.54403,2.28504 -1.31669,3.0188 -0.70761,0.672 -1.5706,1.02971 -2.74769,1.13894 -0.54884,0.051 -0.70507,0.0504 -1.32431,-0.004 z" />
    <path
       id="path1349"
       style="fill:#ffffff;stroke-width:1"
       d="m -297.391,-204.69754 c 1.44832,-0.21321 2.68908,-0.67519 3.79878,-1.41445 0.85872,-0.57205 1.48196,-1.17848 2.08259,-2.02635 1.40161,-1.97864 1.92229,-4.79666 1.39204,-7.53398 -0.65668,-3.38995 -3.07821,-5.97054 -6.37135,-6.78987 -3.00466,-0.74755 -6.11973,-0.0896 -8.31621,1.75674 -1.49243,1.25446 -2.53777,3.02484 -2.95263,5.0006 -0.3647,1.73681 -0.24761,3.71943 0.32192,5.45081 0.21016,0.63896 0.73536,1.67921 1.11853,2.21546 1.38331,1.93597 3.57285,3.13525 6.21602,3.40471 0.55913,0.0571 2.14344,0.0197 2.71031,-0.0637 z m -2.28749,-4.19562 c -0.63015,-0.0559 -1.24743,-0.22608 -1.78917,-0.49344 -0.41397,-0.2043 -0.52171,-0.28368 -0.89822,-0.66178 -0.34739,-0.34888 -0.46651,-0.50544 -0.63373,-0.83284 -0.44768,-0.87657 -0.5918,-1.62484 -0.56086,-2.91189 0.0245,-1.01818 0.1235,-1.47365 0.47839,-2.20026 0.69261,-1.41799 1.9426,-2.22722 3.69754,-2.39369 1.13477,-0.10766 2.34743,0.17097 3.18897,0.73273 1.26473,0.84427 1.94098,2.23577 1.94018,3.99231 -8.6e-4,2.80521 -1.50664,4.54129 -4.13999,4.77442 -0.55488,0.0492 -0.67169,0.0487 -1.28311,-0.005 z" />
    <path
       id="path1345"
       style="fill:#ffffff;stroke-width:1"
       d="m -259.82753,-204.58831 c 0.91635,-0.0856 1.86095,-0.37562 2.47317,-0.75948 0.15792,-0.0991 0.29797,-0.18002 0.31125,-0.18002 0.0133,0 0.15112,0.11592 0.30633,0.2576 0.30706,0.28029 0.67342,0.51756 0.97384,0.63067 0.31017,0.1168 1.05657,0.10096 1.43725,-0.0305 0.82197,-0.28383 1.24459,-0.81611 1.37131,-1.72713 0.0332,-0.23897 0.048,-3.3699 0.0474,-10.07591 -8.2e-4,-10.56509 0.0111,-10.05135 -0.24593,-10.55862 -0.35773,-0.70594 -1.0249,-1.08092 -1.92889,-1.08413 -1.15084,-0.004 -1.84692,0.50622 -2.13196,1.563 -0.0912,0.33775 -0.0947,0.44732 -0.096,3.00483 -8.1e-4,1.45987 -0.0149,2.6543 -0.0313,2.6543 -0.0165,0 -0.058,-0.0527 -0.0924,-0.11695 -0.12445,-0.23256 -0.75538,-0.77396 -1.08887,-0.93434 -0.54725,-0.26322 -0.83439,-0.31313 -1.79796,-0.31251 -0.92099,7.4e-4 -1.29366,0.0446 -2.06753,0.24383 -2.17985,0.5614 -3.90225,2.13059 -5.11978,4.66442 -0.72775,1.51455 -1.04189,3.12724 -0.93841,4.81766 0.0838,1.36857 0.43966,2.66002 1.05249,3.81926 0.97315,1.84079 2.42959,3.11118 4.26861,3.72338 1.11789,0.37212 2.19749,0.50328 3.2974,0.40062 z m -1.38874,-4.28306 c -0.40848,-0.086 -1.04775,-0.39974 -1.39883,-0.68664 -0.79341,-0.64837 -1.2408,-1.56512 -1.35879,-2.78433 -0.14547,-1.50339 0.17824,-2.85761 0.96902,-4.05373 0.47021,-0.71123 1.13373,-1.17619 2.01258,-1.41035 0.51123,-0.13622 1.45928,-0.1687 1.92161,-0.0659 0.9044,0.20122 1.53396,0.79817 1.68572,1.59842 0.0253,0.13335 0.0438,1.32186 0.0438,2.81722 0,2.90071 0.0147,2.75836 -0.33413,3.24713 -0.72328,1.01358 -2.28265,1.60287 -3.54093,1.33813 z" />
    <path
       style="fill:#ffffff;stroke-width:1"
       d="m -318.70055,-204.67525 c 0.57907,-0.22172 1.08444,-0.76047 1.29392,-1.37937 l 0.10218,-0.30196 0.0131,-3.97472 0.0131,-3.97475 3.25749,-0.0124 3.25748,-0.0124 0.30471,-0.14433 c 1.04232,-0.49369 1.45285,-1.77516 0.89628,-2.79775 -0.16819,-0.30904 -0.58319,-0.68633 -0.94172,-0.85615 l -0.30406,-0.14403 -3.2367,-0.0124 -3.23668,-0.0124 v -2.84357 -2.84356 h 3.73846 c 2.59924,0 3.8108,-0.0154 3.97587,-0.0504 0.60658,-0.12881 1.13237,-0.55489 1.4149,-1.14659 0.1622,-0.33966 0.16645,-0.36169 0.16645,-0.86373 0,-0.49991 -0.004,-0.52514 -0.16179,-0.85117 -0.2717,-0.56426 -0.64612,-0.90836 -1.23058,-1.13096 l -0.26518,-0.10101 h -5.12942 c -4.86103,0 -5.14346,0.004 -5.39765,0.0828 -0.73548,0.22687 -1.29572,0.83975 -1.4518,1.58821 -0.0353,0.1692 -0.0494,3.07097 -0.0489,10.10204 7.4e-4,10.75655 -0.014,10.13623 0.2517,10.6604 0.15032,0.29665 0.6452,0.7913 0.92642,0.92603 0.37894,0.18154 0.60657,0.22547 1.08354,0.20917 0.32679,-0.0112 0.51857,-0.0424 0.70889,-0.11523 z"
       id="path1343" />
    <g
       fill="#000000"
       fill-opacity="1"
       stroke="#000000"
       stroke-opacity="1"
       stroke-width="0.375551"
       stroke-linecap="square"
       stroke-linejoin="miter"
       stroke-miterlimit="2"
       id="g6"
       transform="matrix(4.1525236,0,0,4.0885602,-456.83607,-94.423723)"
       style="fill-rule:evenodd" />
    <g
       fill="#000000"
       fill-opacity="1"
       stroke="#000000"
       stroke-opacity="1"
       stroke-width="0.375551"
       stroke-linecap="square"
       stroke-linejoin="miter"
       stroke-miterlimit="2"
       id="g8"
       transform="matrix(4.1525236,0,0,4.0885602,-456.83607,-94.423723)"
       style="fill-rule:evenodd" />
    <g
       fill="#000000"
       fill-opacity="1"
       stroke="#000000"
       stroke-opacity="1"
       stroke-width="0.375551"
       stroke-linecap="square"
       stroke-linejoin="miter"
       stroke-miterlimit="2"
       id="g10"
       transform="matrix(4.1525236,0,0,4.0885602,-456.83607,-94.423723)"
       style="fill-rule:evenodd" />
    <g
       fill="#000000"
       fill-opacity="1"
       stroke="#000000"
       stroke-opacity="1"
       stroke-width="0.375551"
       stroke-linecap="square"
       stroke-linejoin="miter"
       stroke-miterlimit="2"
       id="g12"
       transform="matrix(4.1525236,0,0,4.0885602,-456.83607,-94.423723)"
       style="fill-rule:evenodd" />
    <g
       fill="#000000"
       fill-opacity="1"
       stroke="#000000"
       stroke-opacity="1"
       stroke-width="0.375551"
       stroke-linecap="square"
       stroke-linejoin="miter"
       stroke-miterlimit="2"
       transform="matrix(0.32060098,0,0,0.31566261,-406.84342,-61.715241)"
       id="g14"
       style="fill-rule:evenodd" />
    <g
       fill="#000000"
       fill-opacity="1"
       stroke="#000000"
       stroke-opacity="1"
       stroke-width="0.375551"
       stroke-linecap="square"
       stroke-linejoin="miter"
       stroke-miterlimit="2"
       transform="matrix(0.32060098,0,0,0.31566261,-406.84342,-61.715241)"
       id="g20"
       style="fill-rule:evenodd" />
    <g
       fill="#000000"
       fill-opacity="1"
       stroke="#000000"
       stroke-opacity="1"
       stroke-width="0.375551"
       stroke-linecap="square"
       stroke-linejoin="miter"
       stroke-miterlimit="2"
       transform="matrix(0.32060098,0,0,0.31566261,-406.84342,-61.715241)"
       id="g26"
       style="fill-rule:evenodd" />
    <g
       fill="#000000"
       fill-opacity="1"
       stroke="#000000"
       stroke-opacity="1"
       stroke-width="0.375551"
       stroke-linecap="square"
       stroke-linejoin="miter"
       stroke-miterlimit="2"
       transform="matrix(0.32060098,0,0,0.31566261,-406.84342,-61.715241)"
       id="g32"
       style="fill-rule:evenodd" />
    <g
       fill="#000000"
       fill-opacity="1"
       stroke="#000000"
       stroke-opacity="1"
       stroke-width="0.375551"
       stroke-linecap="square"
       stroke-linejoin="miter"
       stroke-miterlimit="2"
       transform="matrix(0.32060098,0,0,0.31566261,-406.84342,-61.715241)"
       id="g38"
       style="fill-rule:evenodd" />
    <g
       fill="#000000"
       fill-opacity="1"
       stroke="#000000"
       stroke-opacity="1"
       stroke-width="0.375551"
       stroke-linecap="square"
       stroke-linejoin="miter"
       stroke-miterlimit="2"
       transform="matrix(0.32060098,0,0,0.31566261,-406.84342,-61.715241)"
       id="g44"
       style="fill-rule:evenodd" />
    <g
       fill="#000000"
       fill-opacity="1"
       stroke="#000000"
       stroke-opacity="1"
       stroke-width="0.375551"
       stroke-linecap="square"
       stroke-linejoin="miter"
       stroke-miterlimit="2"
       transform="matrix(0.32060098,0,0,0.31566261,-406.84342,-61.715241)"
       id="g46"
       style="fill-rule:evenodd" />
    <g
       fill="#000000"
       fill-opacity="1"
       stroke="#000000"
       stroke-opacity="1"
       stroke-width="0.375551"
       stroke-linecap="square"
       stroke-linejoin="miter"
       stroke-miterlimit="2"
       transform="matrix(0.32060098,0,0,0.31566261,-406.84342,-61.715241)"
       id="g52"
       style="fill-rule:evenodd" />
    <g
       fill="#000000"
       fill-opacity="1"
       stroke="#000000"
       stroke-opacity="1"
       stroke-width="0.375551"
       stroke-linecap="square"
       stroke-linejoin="miter"
       stroke-miterlimit="2"
       transform="matrix(0.32060098,0,0,0.31566261,-406.84342,-61.715241)"
       id="g58"
       style="fill-rule:evenodd" />
    <g
       fill="#000000"
       fill-opacity="1"
       stroke="#000000"
       stroke-opacity="1"
       stroke-width="0.375551"
       stroke-linecap="square"
       stroke-linejoin="miter"
       stroke-miterlimit="2"
       transform="matrix(0.32060098,0,0,0.31566261,-406.84342,-61.715241)"
       id="g64"
       style="fill-rule:evenodd" />
    <g
       fill="#000000"
       fill-opacity="1"
       stroke="#000000"
       stroke-opacity="1"
       stroke-width="0.375551"
       stroke-linecap="square"
       stroke-linejoin="miter"
       stroke-miterlimit="2"
       transform="matrix(0.32060098,0,0,0.31566261,-406.84342,-61.715241)"
       id="g70"
       style="fill-rule:evenodd" />
    <g
       fill="#000000"
       fill-opacity="1"
       stroke="#000000"
       stroke-opacity="1"
       stroke-width="0.375551"
       stroke-linecap="square"
       stroke-linejoin="miter"
       stroke-miterlimit="2"
       transform="matrix(0.32060098,0,0,0.31566261,-406.84342,-61.715241)"
       id="g76"
       style="fill-rule:evenodd" />
    <g
       fill="#000000"
       fill-opacity="1"
       stroke="#000000"
       stroke-opacity="1"
       stroke-width="0.375551"
       stroke-linecap="square"
       stroke-linejoin="miter"
       stroke-miterlimit="2"
       transform="matrix(0.32060098,0,0,0.31566261,-406.84342,-61.715241)"
       id="g78"
       style="fill-rule:evenodd" />
    <g
       fill="#000000"
       fill-opacity="1"
       stroke="#000000"
       stroke-opacity="1"
       stroke-width="0.375551"
       stroke-linecap="square"
       stroke-linejoin="miter"
       stroke-miterlimit="2"
       transform="matrix(0.32060098,0,0,0.31566261,-406.84342,-61.715241)"
       id="g80"
       style="fill-rule:evenodd" />
    <g
       fill="#000000"
       fill-opacity="1"
       stroke="#000000"
       stroke-opacity="1"
       stroke-width="0.375551"
       stroke-linecap="square"
       stroke-linejoin="miter"
       stroke-miterlimit="2"
       transform="matrix(0.32060098,0,0,0.31566261,-406.84342,-61.715241)"
       id="g82"
       style="fill-rule:evenodd" />
    <g
       fill="#000000"
       fill-opacity="1"
       stroke="#000000"
       stroke-opacity="1"
       stroke-width="0.375551"
       stroke-linecap="square"
       stroke-linejoin="miter"
       stroke-miterlimit="2"
       id="g84"
       transform="matrix(4.1525236,0,0,4.0885602,-456.83607,-94.423723)"
       style="fill-rule:evenodd" />
    <g
       fill="#000000"
       fill-opacity="1"
       stroke="#000000"
       stroke-opacity="1"
       stroke-width="0.375551"
       stroke-linecap="square"
       stroke-linejoin="miter"
       stroke-miterlimit="2"
       id="g86"
       transform="matrix(4.1525236,0,0,4.0885602,-456.83607,-94.423723)"
       style="fill-rule:evenodd" />
    <g
       fill="#000000"
       fill-opacity="1"
       stroke="#000000"
       stroke-opacity="1"
       stroke-width="0.375551"
       stroke-linecap="square"
       stroke-linejoin="miter"
       stroke-miterlimit="2"
       id="g88"
       transform="matrix(4.1525236,0,0,4.0885602,-456.83607,-94.423723)"
       style="fill-rule:evenodd" />
    <g
       fill="#000000"
       fill-opacity="1"
       stroke="#000000"
       stroke-opacity="1"
       stroke-width="0.375551"
       stroke-linecap="square"
       stroke-linejoin="miter"
       stroke-miterlimit="2"
       id="g90"
       transform="matrix(4.1525236,0,0,4.0885602,-456.83607,-94.423723)"
       style="fill-rule:evenodd" />
    <g
       fill="#000000"
       fill-opacity="1"
       stroke="#000000"
       stroke-opacity="1"
       stroke-width="0.375551"
       stroke-linecap="square"
       stroke-linejoin="miter"
       stroke-miterlimit="2"
       transform="matrix(0.32060098,0,0,0.31566261,-406.84342,-61.715241)"
       id="g92"
       style="fill-rule:evenodd" />
    <g
       fill="#000000"
       fill-opacity="1"
       stroke="#000000"
       stroke-opacity="1"
       stroke-width="0.375551"
       stroke-linecap="square"
       stroke-linejoin="miter"
       stroke-miterlimit="2"
       transform="matrix(0.32060098,0,0,0.31566261,-406.84342,-61.715241)"
       id="g94"
       style="fill-rule:evenodd" />
    <g
       fill="#000000"
       fill-opacity="1"
       stroke="#000000"
       stroke-opacity="1"
       stroke-width="0.375551"
       stroke-linecap="square"
       stroke-linejoin="miter"
       stroke-miterlimit="2"
       transform="matrix(0.32060098,0,0,0.31566261,-406.84342,-61.715241)"
       id="g96"
       style="fill-rule:evenodd" />
    <g
       fill="#000000"
       fill-opacity="1"
       stroke="#000000"
       stroke-opacity="1"
       stroke-width="0.375551"
       stroke-linecap="square"
       stroke-linejoin="miter"
       stroke-miterlimit="2"
       transform="matrix(0.32060098,0,0,0.31566261,-406.84342,-61.715241)"
       id="g98"
       style="fill-rule:evenodd" />
    <g
       fill="#000000"
       fill-opacity="1"
       stroke="#000000"
       stroke-opacity="1"
       stroke-width="0.375551"
       stroke-linecap="square"
       stroke-linejoin="miter"
       stroke-miterlimit="2"
       transform="matrix(0.32060098,0,0,0.31566261,-406.84342,-61.715241)"
       id="g100"
       style="fill-rule:evenodd" />
    <g
       fill="#000000"
       fill-opacity="1"
       stroke="#000000"
       stroke-opacity="1"
       stroke-width="0.375551"
       stroke-linecap="square"
       stroke-linejoin="miter"
       stroke-miterlimit="2"
       id="g102"
       transform="matrix(4.1525236,0,0,4.0885602,-456.83607,-94.423723)"
       style="fill-rule:evenodd" />
    <g
       fill="#000000"
       fill-opacity="1"
       stroke="#000000"
       stroke-opacity="1"
       stroke-width="0.375551"
       stroke-linecap="square"
       stroke-linejoin="miter"
       stroke-miterlimit="2"
       id="g104"
       transform="matrix(4.1525236,0,0,4.0885602,-456.83607,-94.423723)"
       style="fill-rule:evenodd" />
    <g
       fill="#000000"
       fill-opacity="1"
       stroke="#000000"
       stroke-opacity="1"
       stroke-width="0.375551"
       stroke-linecap="square"
       stroke-linejoin="miter"
       stroke-miterlimit="2"
       id="g106"
       transform="matrix(4.1525236,0,0,4.0885602,-456.83607,-94.423723)"
       style="fill-rule:evenodd" />
    <g
       fill="#000000"
       fill-opacity="1"
       stroke="#000000"
       stroke-opacity="1"
       stroke-width="0.375551"
       stroke-linecap="square"
       stroke-linejoin="miter"
       stroke-miterlimit="2"
       id="g108"
       transform="matrix(4.1525236,0,0,4.0885602,-456.83607,-94.423723)"
       style="fill-rule:evenodd" />
    <g
       fill="#000000"
       fill-opacity="1"
       stroke="#000000"
       stroke-opacity="1"
       stroke-width="0.375551"
       stroke-linecap="square"
       stroke-linejoin="miter"
       stroke-miterlimit="2"
       id="g110"
       transform="matrix(4.1525236,0,0,4.0885602,-456.83607,-94.423723)"
       style="fill-rule:evenodd" />
    <g
       fill="#000000"
       fill-opacity="1"
       stroke="#000000"
       stroke-opacity="1"
       stroke-width="0.375551"
       stroke-linecap="square"
       stroke-linejoin="miter"
       stroke-miterlimit="2"
       id="g112"
       transform="matrix(4.1525236,0,0,4.0885602,-456.83607,-94.423723)"
       style="fill-rule:evenodd" />
  </g>
</svg>
