<svg xmlns="http://www.w3.org/2000/svg" viewBox="0 0 79.91 105.84"><defs><style>.cls-1{fill:#203866;}</style></defs><g id="Layer_2" data-name="Layer 2"><g id="Layer_1-2" data-name="Layer 1"><path class="cls-1" d="M77.7,6.6A6.42,6.42,0,0,1,76.52,8c-.78.78-1.59,1.53-2.38,2.31a.76.76,0,0,1-.52.22c-2.56.19-5.11.42-7.66.52-.24,0-.35,0-.36.33A15.78,15.78,0,0,1,61,22a32.58,32.58,0,0,1-11.32,7.61A33.23,33.23,0,0,1,41,32.05a14.53,14.53,0,0,1-2.55.13.85.85,0,0,0-.56.11A31,31,0,0,0,33,36.09a6,6,0,0,0-1.22,1.66,1.86,1.86,0,0,0,1,2.68,7.06,7.06,0,0,0,2.72.54,34.27,34.27,0,0,0,5.06-.29c4.46-.42,8.91-.9,13.38-1.2a7.26,7.26,0,0,1,2.37.12,3.71,3.71,0,0,1,3,3.4,13.06,13.06,0,0,1-.58,5.19,18.57,18.57,0,0,1-2.6,5.14A35.91,35.91,0,0,1,43.53,64.8,42.28,42.28,0,0,1,27.81,70a24.62,24.62,0,0,1-10.45-.69,10.76,10.76,0,0,1-2.65-1.21,6.55,6.55,0,0,1-2.89-7.79,18,18,0,0,1,9.13-11c1.83-1,3.74-1.82,5.64-2.66l.82-.36-1.75-.47A5,5,0,0,1,24,45.05a2.1,2.1,0,0,1-.87-2.33,7.31,7.31,0,0,1,2-3.3,27.07,27.07,0,0,1,5.92-4.57c1.19-.73,2.42-1.37,3.65-2a.84.84,0,0,0,.39-.27L33.21,32a10.23,10.23,0,0,1-2.11-.88,5.56,5.56,0,0,1-3-6.11A15.52,15.52,0,0,1,30.3,19.3a28.66,28.66,0,0,1,7-8.15A34.65,34.65,0,0,1,48.47,5.66a28.13,28.13,0,0,1,9.41-1.45,11,11,0,0,1,4.47,1.06,6.13,6.13,0,0,1,1.88,1.44.88.88,0,0,0,.65.34A27.29,27.29,0,0,0,69.49,7c2.62-.21,5.23-.53,7.81-.9.19,0,.4,0,.5.09S77.76,6.47,77.7,6.6Zm-.41-1.87c-1.65.18-3.3.43-5,.62a47.66,47.66,0,0,1-6.76.42.86.86,0,0,1-.67-.27,8,8,0,0,0-2.48-1.66,13.41,13.41,0,0,0-4.41-1,31.42,31.42,0,0,0-11.32,2,35.92,35.92,0,0,0-8.4,4,27.08,27.08,0,0,0-5.4,4.68,35.3,35.3,0,0,0-3.78,5.17,21.45,21.45,0,0,0-1.68,3.52c0,.07,0,.17-.15.2-.05.28-.1.56-.17.83a8.64,8.64,0,0,0,.1,5.68,1,1,0,0,1,0,.35v6.21A.6.6,0,0,1,27,36a20.88,20.88,0,0,0-2.41,2.09A9.94,9.94,0,0,0,22,41.89a3.5,3.5,0,0,0,1.33,4.29c.1.07.25.11.3.27-1.19.54-2.35,1.11-3.5,1.74A19,19,0,0,0,10.57,59.9a7.77,7.77,0,0,0,1.57,7.78,10.45,10.45,0,0,0,4.5,2.78,25.46,25.46,0,0,0,11.24.85A43.21,43.21,0,0,0,42.17,67a1.41,1.41,0,0,1,.6-.16c-.08-.18.09-.19.18-.23a40.74,40.74,0,0,0,7-4.56c.84-.67,1.64-1.43,2.45-2.14l.44-.38c0-.15.14-.22.24-.31A32.11,32.11,0,0,0,57.29,54,20.36,20.36,0,0,0,60,48.66,15,15,0,0,0,60.67,43a5,5,0,0,0-3.93-4.63,6.38,6.38,0,0,0-2-.23l-2,.09-3.2.27c-1.13.1-2.25.23-3.38.34s-2.17.18-3.25.29-2.16.22-3.24.31a19.18,19.18,0,0,1-5.61,0l-.44-.11c-.85-.29-1-.64-.46-1.39a12.64,12.64,0,0,1,2.94-2.81c.5-.39,1-.74,1.55-1.14a2.51,2.51,0,0,1,1.53-.5,24.28,24.28,0,0,0,6.28-1,41.42,41.42,0,0,0,7-2.71l.24-.1c.15-.07.28-.17.43-.25a31.8,31.8,0,0,0,9.2-7,17.07,17.07,0,0,0,4.45-9.52c0-.42.18-.52.59-.55,2.24-.14,4.47-.32,6.72-.47a.83.83,0,0,0,.53-.2c1.16-1.09,2.32-2.16,3.4-3.33A5.05,5.05,0,0,0,79,7C79.65,5.44,78.43,4.61,77.29,4.73Z"/><path class="cls-1" d="M58,2.88a31.4,31.4,0,0,0-11.31,2,36.13,36.13,0,0,0-8.4,4,26.54,26.54,0,0,0-5.4,4.69,34.68,34.68,0,0,0-3.78,5.16,22.15,22.15,0,0,0-1.68,3.51c0,.09,0,.18-.15.21s0-.21,0-.31V7.3c0-.1,0-.21,0-.31l0,0c-1.6,0-3.2,0-4.81,0-.34,0-.42-.1-.41-.43q0-3,0-6.11c0-.3.06-.4.39-.4H57.64C58,0,58,.11,58,.41,58,1.23,58,2.05,58,2.88Z"/><path class="cls-1" d="M52.77,38.21l-3.2.27c-1.13.1-2.25.23-3.38.34s-2.17.18-3.25.29l-3.24.32a20,20,0,0,1-5.62,0,3.52,3.52,0,0,1-.43-.13c-.85-.28-1-.63-.46-1.39a12.82,12.82,0,0,1,2.94-2.8c.51-.39,1-.75,1.56-1.13a2.4,2.4,0,0,1,1.52-.51,24.5,24.5,0,0,0,6.29-1,41.13,41.13,0,0,0,7-2.71,2.5,2.5,0,0,1,.25-.09C52.76,32.51,52.77,35.36,52.77,38.21Z"/><path class="cls-1" d="M42.77,66.85c-.08-.18.09-.19.18-.23a41.91,41.91,0,0,0,7-4.55c.85-.68,1.64-1.44,2.45-2.15l.44-.38h4.8c.29,0,.39.07.39.37q0,3.3,0,6.61c0,.21,0,.36-.3.36Z"/><path class="cls-1" d="M27.25,6.94l0,0A.07.07,0,0,1,27.25,6.94Z"/><path class="cls-1" d="M49.85,50.16a13.51,13.51,0,0,1-3.22,6.73,22.59,22.59,0,0,1-5.16,4.6,26.92,26.92,0,0,1-10,3.94,23.43,23.43,0,0,1-5.08.45A10.22,10.22,0,0,1,22.42,65a1.17,1.17,0,0,1-.39-.28,3.82,3.82,0,0,1-2-2.86A8.17,8.17,0,0,1,20.5,58a14.79,14.79,0,0,1,6.42-8c.11-.07.21-.18.36-.14A5,5,0,0,1,29,48.85a16.3,16.3,0,0,1,5.65-1.22c1.2-.07,2.4-.28,3.59-.41.83-.07,1.67-.16,2.5-.2,2.12-.08,4.23-.23,6.36-.19a2.94,2.94,0,0,1,1.9.67A2.82,2.82,0,0,1,49.85,50.16Zm-2.23-4.59a35.65,35.65,0,0,0-4.26,0l-2.7.14c-2.21.1-4.41.43-6.61.61a18.11,18.11,0,0,0-4.66.94A16.59,16.59,0,0,0,20.92,54a14,14,0,0,0-2.27,6.32,5.7,5.7,0,0,0,3.55,6,10.91,10.91,0,0,0,4.6.86,28.23,28.23,0,0,0,15.25-4.53,22.17,22.17,0,0,0,7.24-7.24,12.17,12.17,0,0,0,1.91-5.5A3.9,3.9,0,0,0,47.62,45.57Z"/><path class="cls-1" d="M52.77,22.74a7.88,7.88,0,0,1-1.37,1.57,16.89,16.89,0,0,1-4.57,3.11,10.72,10.72,0,0,1-5.39,1.07,3.74,3.74,0,0,1-3.7-3.61,13,13,0,0,1,.62-4.34,17.39,17.39,0,0,1,3.24-6.49,15.36,15.36,0,0,1,6-4.64,10.83,10.83,0,0,1,4.65-.95,1.14,1.14,0,0,1,.52.08,3.75,3.75,0,0,1,3.66,3.93,16.06,16.06,0,0,1-3.29,9.87A1.18,1.18,0,0,1,52.77,22.74Zm.8-15.41a9.94,9.94,0,0,0-6.27.77c-6.89,3.13-10.2,8.77-10.88,16.07A4.86,4.86,0,0,0,40,29.55a7.36,7.36,0,0,0,2,.3,12.13,12.13,0,0,0,6.11-1.58A17.56,17.56,0,0,0,57.76,13,5.05,5.05,0,0,0,53.57,7.33Z"/><path class="cls-1" d="M27.28,49.8A4.81,4.81,0,0,1,29,48.85a16.54,16.54,0,0,1,5.65-1.23c1.2-.06,2.4-.27,3.6-.39.82-.09,1.66-.18,2.49-.21,2.12-.08,4.24-.23,6.36-.18a2.72,2.72,0,0,1,2.77,3.32,13.61,13.61,0,0,1-3.23,6.73,22.43,22.43,0,0,1-5.17,4.6,26.89,26.89,0,0,1-10,3.95,23.38,23.38,0,0,1-5.07.44A10.14,10.14,0,0,1,22.43,65a1.26,1.26,0,0,1-.4-.28c0-1.58,0-3.15,0-4.72,0-.42.13-.49.51-.48,1.42,0,2.84,0,4.27,0,.4,0,.48-.11.48-.5C27.27,56,27.28,52.88,27.28,49.8Z"/><path class="cls-1" d="M52.78,22.73a7.72,7.72,0,0,1-1.38,1.58,17.35,17.35,0,0,1-4.57,3.11,10.61,10.61,0,0,1-5.39,1.07,3.74,3.74,0,0,1-3.7-3.6,13,13,0,0,1,.62-4.35,17.27,17.27,0,0,1,3.25-6.49,15.28,15.28,0,0,1,6-4.65,11,11,0,0,1,4.65-.94,1.2,1.2,0,0,1,.53.08Z"/><path class="cls-1" d="M27.71,29.21a14.81,14.81,0,0,0,1.23,1.63,9,9,0,0,0,3,2c.06,0,.14,0,.18.15-1.26.7-2.47,1.49-3.67,2.29-.23.16-.41.4-.71.44Q27.65,32.45,27.71,29.21Z"/><path class="cls-1" d="M0,77.48l1,0H7.45c.13,0,.35-.09.33.16s-.2.13-.32.13C6,77.87,6,77.92,5.94,79.36c0,2.81,0,5.62,0,8.44,0,.07,0,.15,0,.22,0,1.06.25,1.26,1.31,1.33.19,0,.52-.11.52.16s-.36.16-.54.16H.49l-.49,0v-.36a3.69,3.69,0,0,0,.94-.07.8.8,0,0,0,.78-.82,9.77,9.77,0,0,0,.06-1.08c0-2,0-3.91,0-5.87,0-.88,0-1.76,0-2.64s-.23-1-1-1.06L0,77.75Z"/><path class="cls-1" d="M37.57,104.26a.85.85,0,0,1-.51.69.54.54,0,0,1-.82-.37,5.2,5.2,0,0,1,.06-2.51.82.82,0,0,1,.46-.52,3.65,3.65,0,0,0,.82-.47C37.58,102.19,37.6,103.23,37.57,104.26Zm4.63-1.2c-.2,0-.12.2-.13.32a2.91,2.91,0,0,1-.23,1,.52.52,0,0,1-.52.29c-.23,0-.32-.18-.37-.39a3.21,3.21,0,0,1-.07-.76c0-1.2,0-2.4,0-3.59a1.93,1.93,0,0,0-1.27-2,6.06,6.06,0,0,0-5,0,2.33,2.33,0,0,0-1.15,1,1.21,1.21,0,0,0,.82,1.93,2.39,2.39,0,0,0,1.58-.17,1.17,1.17,0,0,0,.33-2c-.14-.14-.35-.26-.19-.51a.55.55,0,0,1,.63-.36.59.59,0,0,1,.37,0c.15,0,.3.07.36.26a1,1,0,0,1,.17.67c0,.51,0,1,0,1.53a.71.71,0,0,1-.64.85,17.17,17.17,0,0,1-2,.28,2,2,0,0,0-2.1,2c.12,1.51.46,1.91,2,2.36,0,0,0,0,.06.07h.89c.06-.14.18-.09.28-.1a2.26,2.26,0,0,0,1.77-1.26c.27.9,1,1.11,1.72,1.36h.55c0-.1.11-.09.18-.1a2.08,2.08,0,0,0,2.07-2.33C42.34,103.25,42.42,103.05,42.2,103.06Z"/><path class="cls-1" d="M63.05,104.15a.92.92,0,0,1-.49.77.54.54,0,0,1-.86-.32,4.79,4.79,0,0,1,.08-2.6c.07-.25.28-.37.5-.49l.77-.39C63.05,102.16,63.06,103.16,63.05,104.15Zm4.62-1.09c-.21,0-.15.18-.15.3a3,3,0,0,1-.22,1,.51.51,0,0,1-.5.3c-.26,0-.35-.18-.4-.41a3.49,3.49,0,0,1-.07-.85c0-1.19,0-2.36,0-3.55A1.85,1.85,0,0,0,65.18,98a5.93,5.93,0,0,0-5.2,0,2.05,2.05,0,0,0-1.08,1,1.2,1.2,0,0,0,.85,1.83,2.75,2.75,0,0,0,1.07,0,1.41,1.41,0,0,0,1.25-.94,1.13,1.13,0,0,0-.46-1.34c-.28-.23-.22-.51.08-.69a.83.83,0,0,1,1.32.64c0,.57,0,1.13,0,1.7s-.06.72-.65.88a13.56,13.56,0,0,1-2,.28,2.26,2.26,0,0,0-1.5.61,2.22,2.22,0,0,0,.93,3.61c.17,0,.36,0,.49.18h.9c0-.14.18-.09.28-.1a2.29,2.29,0,0,0,1.79-1.25c.24.9,1,1.09,1.7,1.35h.54c0-.1.11-.09.19-.09a2.09,2.09,0,0,0,2.08-2.32C67.79,103.26,67.87,103.06,67.67,103.06Z"/><path class="cls-1" d="M29.3,105.8a3,3,0,0,0-.83-.27,2.18,2.18,0,0,1-1.62-2.31c0-1.51,0-3,0-4.53,0-.32-.1-.44-.41-.4a2.26,2.26,0,0,1-.45,0c-.12,0-.28,0-.29-.17s0-.31.21-.38a6.24,6.24,0,0,0,2.34-1.62,6.26,6.26,0,0,0,1.19-1.57A.42.42,0,0,1,30,94.3c.25,0,.13.27.13.41,0,.82,0,1.65,0,2.47,0,.33.06.48.43.45a10.14,10.14,0,0,1,1.35,0c.13,0,.4-.13.36.13s0,.55-.41.54-.93,0-1.4,0c-.25,0-.33.06-.33.32,0,1.71,0,3.42,0,5.12,0,1,.56,1.5,1.36,1.36.51-.09.87-.61,1-1.38,0-.16-.05-.39.26-.34a2.07,2.07,0,0,1-1.94,2.32c-.13,0-.3,0-.4.11Z"/><path class="cls-1" d="M44,86a1.87,1.87,0,0,1-.11.48.56.56,0,0,1-.56.43.52.52,0,0,1-.58-.4,9.9,9.9,0,0,1,0-4.3.53.53,0,0,1,.59-.39.62.62,0,0,1,.58.48,12.15,12.15,0,0,1,.17,2.1C44,85,44,85.48,44,86Zm-2.84,5c1.64,0,3.28,0,4.93,0,.38,0,.84,0,1,.57a1,1,0,0,1-.67,1.13,6.8,6.8,0,0,1-2.93.47,6.2,6.2,0,0,1-2-.3,2.66,2.66,0,0,1-.69-.31.88.88,0,0,1-.37-1A.73.73,0,0,1,41.13,91.05Zm17.7-1.71c-.75-.07-.87-.17-.87-1,0-2.09,0-4.19,0-6.29,0-.3-.08-.4-.39-.4-1.31,0-2.61,0-3.91,0h-.28c-.08,0-.15,0-.15.13s0,.15.12.16l.27,0c.9.08,1,.23,1,1.14,0,1.58,0,3.15,0,4.72a1.45,1.45,0,0,1-.35,1,1,1,0,0,1-1,.35.81.81,0,0,1-.71-.65,2.43,2.43,0,0,1-.09-.71c0-1.89,0-3.78,0-5.67,0-.43-.13-.51-.52-.5-1.24,0-2.46,0-3.69,0a1.42,1.42,0,0,1-.49-.07,1.69,1.69,0,0,0-2,.58c-.11.16-.17.18-.33,0a3.62,3.62,0,0,0-3.19-.63,2.8,2.8,0,0,0-2.28,2,2.59,2.59,0,0,0,1,2.87.81.81,0,0,1,.12.14,2.31,2.31,0,0,0-1.72,1.72,2.2,2.2,0,0,0,1.31,2.41c-.21.09-.37.15-.53.23A1,1,0,0,0,40,92.75a1.85,1.85,0,0,0,.8.47,8.5,8.5,0,0,0,2.61.38,7.1,7.1,0,0,0,3.44-.74A2.18,2.18,0,0,0,48.09,91a2.71,2.71,0,0,0-2.73-3c-1.2,0-2.41,0-3.6,0a1.73,1.73,0,0,1-.71-.11.42.42,0,0,1-.3-.4.47.47,0,0,1,.28-.42A1.05,1.05,0,0,1,41.9,87a4,4,0,0,0,2.07.2A2.87,2.87,0,0,0,46.2,83c-.1-.17-.4-.32-.16-.6a1.34,1.34,0,0,1,.58-.42c.08,0,.18-.07.25,0s0,.19-.06.27a.82.82,0,0,0,0,1.11,1.12,1.12,0,0,0,1.21.18.94.94,0,0,0,.51-1c0-.14-.07-.28-.1-.43.61,0,.79.12.82.72.07,1.51,0,3,0,4.54a2.17,2.17,0,0,0,1,1.84,3.35,3.35,0,0,0,4.48-.44,1.9,1.9,0,0,1,0,.42c-.07.46.13.54.55.53,1.17,0,2.33,0,3.51,0,.13,0,.33.09.35-.15S59,89.37,58.83,89.34Z"/><path class="cls-1" d="M46.56,98.61c.75-1.77,4.28-1.45,5,.32.11-.22.22-.41.31-.6a1.24,1.24,0,0,1,.94-.75,3.89,3.89,0,0,1,3,.38,2.08,2.08,0,0,1,1,1.88c0,1.51,0,3,0,4.53,0,.76,0,.76.76.9.1,0,.22,0,.21.16s-.18.16-.3.16H53.1c-.12,0-.26,0-.26-.17s.12-.15.23-.15c.42,0,.55-.23.56-.59,0-1.89.07-3.78,0-5.66,0-.67-.26-.92-.68-1a1.09,1.09,0,0,0-1,.82,2.11,2.11,0,0,0-.13.7c0,1.61,0,3.21,0,4.81,0,.42,0,.85.58.87.09,0,.12.07.12.16s-.06.16-.16.16H48.09c-.13,0-.34.1-.37-.12s.18-.18.31-.19a.46.46,0,0,0,.44-.47,18,18,0,0,0,.05-2.2c0-1.23.06-2.46-.05-3.68,0-.42-.15-.78-.64-.85a.88.88,0,0,0-1,.59,1.94,1.94,0,0,0-.2.86c0,1.65,0,3.3,0,4.94,0,.4,0,.78.54.81a.15.15,0,0,1,.16.17c0,.12-.09.15-.18.15H42.72c-.14,0-.38.11-.39-.15s.22-.15.35-.16c.53-.06.65-.15.67-.7.07-2,.08-3.92,0-5.88,0-.62-.1-.66-.73-.73-.13,0-.34,0-.33-.19s.22-.14.35-.14c1.14,0,2.27,0,3.41,0,.41,0,.58.09.51.51A4,4,0,0,0,46.56,98.61Z"/><path class="cls-1" d="M25.18,85.82c0,.81,0,1.61,0,2.42,0,.65-.3,1-.84,1.1s-.92-.15-1.15-.8A4.73,4.73,0,0,1,23,87.26a16.14,16.14,0,0,1,.13-3.93,2.84,2.84,0,0,1,.24-.73.85.85,0,0,1,1-.54,1,1,0,0,1,.82.9A18.21,18.21,0,0,1,25.18,85.82Zm4.24,3.53c-.77-.06-.92-.2-.93-1,0-3.49,0-7,0-10.47,0-.36-.1-.45-.44-.44-.92,0-1.83,0-2.75,0H23.78c-.1,0-.23,0-.23.13s.11.15.22.16c.26,0,.54,0,.8.09a.64.64,0,0,1,.62.69c0,.34,0,.69,0,1,0,.93,0,1.86,0,2.85-.3-.33-.51-.63-.89-.73A3.66,3.66,0,0,0,20.22,83a5.36,5.36,0,0,0,0,5.34c1.07,1.65,4.07,2,5,.57.06.73.06.73.73.73h3.42c.14,0,.38.1.4-.15S29.56,89.37,29.42,89.35Z"/><path class="cls-1" d="M12.76,82.7a2.38,2.38,0,0,1,2-1.16,3.55,3.55,0,0,1,2.82.91,2,2,0,0,1,.6,1.45c0,1.51,0,3,0,4.54,0,.77,0,.8.82.91.11,0,.22,0,.23.16s-.13.17-.25.17H14.31c-.11,0-.22,0-.23-.14s.08-.19.2-.18c.57,0,.65-.35.65-.8,0-1.73,0-3.45,0-5.17,0-.81-.3-1.21-.87-1.23a1.13,1.13,0,0,0-1.19,1.21c-.09,1.79,0,3.59,0,5.38a.53.53,0,0,0,.57.61c.12,0,.3,0,.28.18s-.2.14-.32.14H8.77c-.13,0-.3,0-.29-.18s.16-.13.27-.14c.73-.08.8-.14.81-.84,0-1.87,0-3.74,0-5.62,0-.73-.06-.76-.78-.86-.13,0-.31,0-.3-.19s.2-.13.31-.13c1.19,0,2.37,0,3.55,0,.34,0,.47.08.42.42A5.61,5.61,0,0,0,12.76,82.7Z"/><path class="cls-1" d="M63.56,82.7a2.38,2.38,0,0,1,2-1.15,3.65,3.65,0,0,1,2.74.75A2,2,0,0,1,69,83.94c0,1.5,0,3,0,4.49,0,.77,0,.81.82.93.11,0,.22,0,.23.14s-.12.18-.25.18H65.12c-.11,0-.22,0-.23-.14s.11-.18.24-.18a.53.53,0,0,0,.59-.58c.07-1.9.1-3.8,0-5.7a.91.91,0,0,0-1.47-.75,1.41,1.41,0,0,0-.6,1.11c0,1.73,0,3.45,0,5.17,0,.4.08.76.61.75.11,0,.26,0,.25.16s-.19.16-.31.16H59.5c-.13,0-.2-.05-.19-.18s.09-.14.19-.14c.82,0,.87-.16.88-1,0-1.72,0-3.44,0-5.16,0-.17,0-.33,0-.49,0-.45-.25-.6-.65-.62-.14,0-.4.07-.39-.17s.28-.15.43-.15c1.12,0,2.24,0,3.36,0,.38,0,.52.09.47.47A3.11,3.11,0,0,0,63.56,82.7Z"/><path class="cls-1" d="M75.15,88.32a.83.83,0,0,1-.54.71.52.52,0,0,1-.8-.37,5.08,5.08,0,0,1,0-2.48.82.82,0,0,1,.43-.53l.87-.44C75.16,86.27,75.18,87.29,75.15,88.32Zm4.63-1.19c-.16,0-.13.13-.13.24a2.68,2.68,0,0,1-.22,1.08.52.52,0,0,1-.53.35.43.43,0,0,1-.39-.43,7.18,7.18,0,0,1-.06-.81c0-1.17,0-2.36,0-3.54a1.89,1.89,0,0,0-1.21-1.92,6,6,0,0,0-5.16.05,2.3,2.3,0,0,0-1,.79A1.22,1.22,0,0,0,72,85a3,3,0,0,0,.94,0,1.45,1.45,0,0,0,1.29-.91,1.15,1.15,0,0,0-.45-1.38c-.3-.24-.22-.53.12-.7a.81.81,0,0,1,1.28.65c.05.54,0,1.08,0,1.62,0,.74-.06.81-.8,1a17.27,17.27,0,0,1-2.26.3,2,2,0,0,0-1.62,1.54,2.19,2.19,0,0,0,.92,2.39,3.07,3.07,0,0,0,4-.87,2.17,2.17,0,0,0,2.33,1.22,2.15,2.15,0,0,0,2.19-2.44C79.9,87.27,79.94,87.13,79.78,87.13Z"/><path class="cls-1" d="M35.52,85.69c0,.73,0,1.46,0,2.19a2.34,2.34,0,0,1-.37,1.24.84.84,0,0,1-1.48,0,2.6,2.6,0,0,1-.33-1.2,32.16,32.16,0,0,1,0-4.39,2.51,2.51,0,0,1,.35-1.23.84.84,0,0,1,1.5,0,2.3,2.3,0,0,1,.32,1c.05.78.07,1.58.1,2.37Zm2.33-2.76a4.78,4.78,0,0,0-4.46-1.3A4.26,4.26,0,0,0,30,84.94a4,4,0,0,0,2,4.27,4.57,4.57,0,0,0,2.31.62A4.64,4.64,0,0,0,38,88.27,3.92,3.92,0,0,0,37.85,82.93Z"/><path class="cls-1" d="M25.77,93.36H21.41c-.12,0-.3-.07-.3.16s.17.13.28.14l.8.08c.81.09,1.16.44,1.18,1.25.05,2.23.08,4.46,0,6.69a4.22,4.22,0,0,1-1,2.76,2.81,2.81,0,0,1-4.19-.14,3.11,3.11,0,0,1-.42-1.81c0-2.42,0-4.85,0-7.27a5.19,5.19,0,0,1,.05-.68c.09-.58.24-.73.83-.8.31,0,.63,0,.94-.08.1,0,.22,0,.23-.14s-.14-.16-.25-.17h-.27c-2.22,0-4.43,0-6.65,0-.23,0-.64-.16-.66.12s.42.2.66.23c.64.1.84.27.9.9a10.51,10.51,0,0,1,.06,1.12q0,3.12,0,6.25a3,3,0,0,0,1.13,2.44,4.76,4.76,0,0,0,1.29.79h0l.07,0,.07,0h0a5.79,5.79,0,0,0,.77.25,2,2,0,0,0,.34.06,5.25,5.25,0,0,0,.62.12l.51.08h.11a8,8,0,0,0,1.62,0h0l.2,0a4.94,4.94,0,0,0,1.17-.31h0a3.38,3.38,0,0,0,2.06-2.67,13.82,13.82,0,0,0,.23-2.72c0-1.64,0-3.27,0-4.9,0-1,.41-1.35,1.36-1.44a5.7,5.7,0,0,0,.58-.06c.12,0,.3,0,.28-.17S25.87,93.38,25.77,93.36Z"/><path class="cls-1" d="M77.7,6.6A6.42,6.42,0,0,1,76.52,8c-.78.78-1.59,1.53-2.38,2.31a.76.76,0,0,1-.52.22c-2.56.19-5.11.42-7.66.52-.24,0-.35,0-.36.33A15.78,15.78,0,0,1,61,22a32.58,32.58,0,0,1-11.32,7.61A33.23,33.23,0,0,1,41,32.05a14.53,14.53,0,0,1-2.55.13.85.85,0,0,0-.56.11A31,31,0,0,0,33,36.09a6,6,0,0,0-1.22,1.66,1.86,1.86,0,0,0,1,2.68,7.06,7.06,0,0,0,2.72.54,34.27,34.27,0,0,0,5.06-.29c4.46-.42,8.91-.9,13.38-1.2a7.26,7.26,0,0,1,2.37.12,3.71,3.71,0,0,1,3,3.4,13.06,13.06,0,0,1-.58,5.19,18.57,18.57,0,0,1-2.6,5.14A35.91,35.91,0,0,1,43.53,64.8,42.28,42.28,0,0,1,27.81,70a24.62,24.62,0,0,1-10.45-.69,10.76,10.76,0,0,1-2.65-1.21,6.55,6.55,0,0,1-2.89-7.79,18,18,0,0,1,9.13-11c1.83-1,3.74-1.82,5.64-2.66l.82-.36-1.75-.47A5,5,0,0,1,24,45.05a2.1,2.1,0,0,1-.87-2.33,7.31,7.31,0,0,1,2-3.3,27.07,27.07,0,0,1,5.92-4.57c1.19-.73,2.42-1.37,3.65-2a.84.84,0,0,0,.39-.27L33.21,32a10.23,10.23,0,0,1-2.11-.88,5.56,5.56,0,0,1-3-6.11A15.52,15.52,0,0,1,30.3,19.3a28.66,28.66,0,0,1,7-8.15A34.65,34.65,0,0,1,48.47,5.66a28.13,28.13,0,0,1,9.41-1.45,11,11,0,0,1,4.47,1.06,6.13,6.13,0,0,1,1.88,1.44.88.88,0,0,0,.65.34A27.29,27.29,0,0,0,69.49,7c2.62-.21,5.23-.53,7.81-.9.19,0,.4,0,.5.09S77.76,6.47,77.7,6.6Zm-.41-1.87c-1.65.18-3.3.43-5,.62a47.66,47.66,0,0,1-6.76.42.86.86,0,0,1-.67-.27,8,8,0,0,0-2.48-1.66,13.41,13.41,0,0,0-4.41-1,31.42,31.42,0,0,0-11.32,2,35.92,35.92,0,0,0-8.4,4,27.08,27.08,0,0,0-5.4,4.68,35.3,35.3,0,0,0-3.78,5.17,21.45,21.45,0,0,0-1.68,3.52c0,.07,0,.17-.15.2-.05.28-.1.56-.17.83a8.64,8.64,0,0,0,.1,5.68,1,1,0,0,1,0,.35v6.21A.6.6,0,0,1,27,36a20.88,20.88,0,0,0-2.41,2.09A9.94,9.94,0,0,0,22,41.89a3.5,3.5,0,0,0,1.33,4.29c.1.07.25.11.3.27-1.19.54-2.35,1.11-3.5,1.74A19,19,0,0,0,10.57,59.9a7.77,7.77,0,0,0,1.57,7.78,10.45,10.45,0,0,0,4.5,2.78,25.46,25.46,0,0,0,11.24.85A43.21,43.21,0,0,0,42.17,67a1.41,1.41,0,0,1,.6-.16c-.08-.18.09-.19.18-.23a40.74,40.74,0,0,0,7-4.56c.84-.67,1.64-1.43,2.45-2.14l.44-.38c0-.15.14-.22.24-.31A32.11,32.11,0,0,0,57.29,54,20.36,20.36,0,0,0,60,48.66,15,15,0,0,0,60.67,43a5,5,0,0,0-3.93-4.63,6.38,6.38,0,0,0-2-.23l-2,.09-3.2.27c-1.13.1-2.25.23-3.38.34s-2.17.18-3.25.29-2.16.22-3.24.31a19.18,19.18,0,0,1-5.61,0l-.44-.11c-.85-.29-1-.64-.46-1.39a12.64,12.64,0,0,1,2.94-2.81c.5-.39,1-.74,1.55-1.14a2.51,2.51,0,0,1,1.53-.5,24.28,24.28,0,0,0,6.28-1,41.42,41.42,0,0,0,7-2.71l.24-.1c.15-.07.28-.17.43-.25a31.8,31.8,0,0,0,9.2-7,17.07,17.07,0,0,0,4.45-9.52c0-.42.18-.52.59-.55,2.24-.14,4.47-.32,6.72-.47a.83.83,0,0,0,.53-.2c1.16-1.09,2.32-2.16,3.4-3.33A5.05,5.05,0,0,0,79,7C79.65,5.44,78.43,4.61,77.29,4.73Z"/><path class="cls-1" d="M58,2.88a31.4,31.4,0,0,0-11.31,2,36.13,36.13,0,0,0-8.4,4,26.54,26.54,0,0,0-5.4,4.69,34.68,34.68,0,0,0-3.78,5.16,22.15,22.15,0,0,0-1.68,3.51c0,.09,0,.18-.15.21s0-.21,0-.31V7.3c0-.1,0-.21,0-.31l0,0c-1.6,0-3.2,0-4.81,0-.34,0-.42-.1-.41-.43q0-3,0-6.11c0-.3.06-.4.39-.4H57.64C58,0,58,.11,58,.41,58,1.23,58,2.05,58,2.88Z"/><path class="cls-1" d="M52.77,38.21l-3.2.27c-1.13.1-2.25.23-3.38.34s-2.17.18-3.25.29l-3.24.32a20,20,0,0,1-5.62,0,3.52,3.52,0,0,1-.43-.13c-.85-.28-1-.63-.46-1.39a12.82,12.82,0,0,1,2.94-2.8c.51-.39,1-.75,1.56-1.13a2.4,2.4,0,0,1,1.52-.51,24.5,24.5,0,0,0,6.29-1,41.13,41.13,0,0,0,7-2.71,2.5,2.5,0,0,1,.25-.09C52.76,32.51,52.77,35.36,52.77,38.21Z"/><path class="cls-1" d="M42.77,66.85c-.08-.18.09-.19.18-.23a41.91,41.91,0,0,0,7-4.55c.85-.68,1.64-1.44,2.45-2.15l.44-.38h4.8c.29,0,.39.07.39.37q0,3.3,0,6.61c0,.21,0,.36-.3.36Z"/><path class="cls-1" d="M27.25,6.94l0,0A.07.07,0,0,1,27.25,6.94Z"/><path class="cls-1" d="M49.85,50.16a13.51,13.51,0,0,1-3.22,6.73,22.59,22.59,0,0,1-5.16,4.6,26.92,26.92,0,0,1-10,3.94,23.43,23.43,0,0,1-5.08.45A10.22,10.22,0,0,1,22.42,65a1.17,1.17,0,0,1-.39-.28,3.82,3.82,0,0,1-2-2.86A8.17,8.17,0,0,1,20.5,58a14.79,14.79,0,0,1,6.42-8c.11-.07.21-.18.36-.14A5,5,0,0,1,29,48.85a16.3,16.3,0,0,1,5.65-1.22c1.2-.07,2.4-.28,3.59-.41.83-.07,1.67-.16,2.5-.2,2.12-.08,4.23-.23,6.36-.19a2.94,2.94,0,0,1,1.9.67A2.82,2.82,0,0,1,49.85,50.16Zm-2.23-4.59a35.65,35.65,0,0,0-4.26,0l-2.7.14c-2.21.1-4.41.43-6.61.61a18.11,18.11,0,0,0-4.66.94A16.59,16.59,0,0,0,20.92,54a14,14,0,0,0-2.27,6.32,5.7,5.7,0,0,0,3.55,6,10.91,10.91,0,0,0,4.6.86,28.23,28.23,0,0,0,15.25-4.53,22.17,22.17,0,0,0,7.24-7.24,12.17,12.17,0,0,0,1.91-5.5A3.9,3.9,0,0,0,47.62,45.57Z"/><path class="cls-1" d="M52.77,22.74a7.88,7.88,0,0,1-1.37,1.57,16.89,16.89,0,0,1-4.57,3.11,10.72,10.72,0,0,1-5.39,1.07,3.74,3.74,0,0,1-3.7-3.61,13,13,0,0,1,.62-4.34,17.39,17.39,0,0,1,3.24-6.49,15.36,15.36,0,0,1,6-4.64,10.83,10.83,0,0,1,4.65-.95,1.14,1.14,0,0,1,.52.08,3.75,3.75,0,0,1,3.66,3.93,16.06,16.06,0,0,1-3.29,9.87A1.18,1.18,0,0,1,52.77,22.74Zm.8-15.41a9.94,9.94,0,0,0-6.27.77c-6.89,3.13-10.2,8.77-10.88,16.07A4.86,4.86,0,0,0,40,29.55a7.36,7.36,0,0,0,2,.3,12.13,12.13,0,0,0,6.11-1.58A17.56,17.56,0,0,0,57.76,13,5.05,5.05,0,0,0,53.57,7.33Z"/><path class="cls-1" d="M27.28,49.8A4.81,4.81,0,0,1,29,48.85a16.54,16.54,0,0,1,5.65-1.23c1.2-.06,2.4-.27,3.6-.39.82-.09,1.66-.18,2.49-.21,2.12-.08,4.24-.23,6.36-.18a2.72,2.72,0,0,1,2.77,3.32,13.61,13.61,0,0,1-3.23,6.73,22.43,22.43,0,0,1-5.17,4.6,26.89,26.89,0,0,1-10,3.95,23.38,23.38,0,0,1-5.07.44A10.14,10.14,0,0,1,22.43,65a1.26,1.26,0,0,1-.4-.28c0-1.58,0-3.15,0-4.72,0-.42.13-.49.51-.48,1.42,0,2.84,0,4.27,0,.4,0,.48-.11.48-.5C27.27,56,27.28,52.88,27.28,49.8Z"/><path class="cls-1" d="M52.78,22.73a7.72,7.72,0,0,1-1.38,1.58,17.35,17.35,0,0,1-4.57,3.11,10.61,10.61,0,0,1-5.39,1.07,3.74,3.74,0,0,1-3.7-3.6,13,13,0,0,1,.62-4.35,17.27,17.27,0,0,1,3.25-6.49,15.28,15.28,0,0,1,6-4.65,11,11,0,0,1,4.65-.94,1.2,1.2,0,0,1,.53.08Z"/><path class="cls-1" d="M27.71,29.21a14.81,14.81,0,0,0,1.23,1.63,9,9,0,0,0,3,2c.06,0,.14,0,.18.15-1.26.7-2.47,1.49-3.67,2.29-.23.16-.41.4-.71.44Q27.65,32.45,27.71,29.21Z"/><path class="cls-1" d="M0,77.48l1,0H7.45c.13,0,.35-.09.33.16s-.2.13-.32.13C6,77.87,6,77.92,5.94,79.36c0,2.81,0,5.62,0,8.44,0,.07,0,.15,0,.22,0,1.06.25,1.26,1.31,1.33.19,0,.52-.11.52.16s-.36.16-.54.16H.49l-.49,0v-.36a3.69,3.69,0,0,0,.94-.07.8.8,0,0,0,.78-.82,9.77,9.77,0,0,0,.06-1.08c0-2,0-3.91,0-5.87,0-.88,0-1.76,0-2.64s-.23-1-1-1.06L0,77.75Z"/><path class="cls-1" d="M37.57,104.26a.85.85,0,0,1-.51.69.54.54,0,0,1-.82-.37,5.2,5.2,0,0,1,.06-2.51.82.82,0,0,1,.46-.52,3.65,3.65,0,0,0,.82-.47C37.58,102.19,37.6,103.23,37.57,104.26Zm4.63-1.2c-.2,0-.12.2-.13.32a2.91,2.91,0,0,1-.23,1,.52.52,0,0,1-.52.29c-.23,0-.32-.18-.37-.39a3.21,3.21,0,0,1-.07-.76c0-1.2,0-2.4,0-3.59a1.93,1.93,0,0,0-1.27-2,6.06,6.06,0,0,0-5,0,2.33,2.33,0,0,0-1.15,1,1.21,1.21,0,0,0,.82,1.93,2.39,2.39,0,0,0,1.58-.17,1.17,1.17,0,0,0,.33-2c-.14-.14-.35-.26-.19-.51a.55.55,0,0,1,.63-.36.59.59,0,0,1,.37,0c.15,0,.3.07.36.26a1,1,0,0,1,.17.67c0,.51,0,1,0,1.53a.71.71,0,0,1-.64.85,17.17,17.17,0,0,1-2,.28,2,2,0,0,0-2.1,2c.12,1.51.46,1.91,2,2.36,0,0,0,0,.06.07h.89c.06-.14.18-.09.28-.1a2.26,2.26,0,0,0,1.77-1.26c.27.9,1,1.11,1.72,1.36h.55c0-.1.11-.09.18-.1a2.08,2.08,0,0,0,2.07-2.33C42.34,103.25,42.42,103.05,42.2,103.06Z"/><path class="cls-1" d="M63.05,104.15a.92.92,0,0,1-.49.77.54.54,0,0,1-.86-.32,4.79,4.79,0,0,1,.08-2.6c.07-.25.28-.37.5-.49l.77-.39C63.05,102.16,63.06,103.16,63.05,104.15Zm4.62-1.09c-.21,0-.15.18-.15.3a3,3,0,0,1-.22,1,.51.51,0,0,1-.5.3c-.26,0-.35-.18-.4-.41a3.49,3.49,0,0,1-.07-.85c0-1.19,0-2.36,0-3.55A1.85,1.85,0,0,0,65.18,98a5.93,5.93,0,0,0-5.2,0,2.05,2.05,0,0,0-1.08,1,1.2,1.2,0,0,0,.85,1.83,2.75,2.75,0,0,0,1.07,0,1.41,1.41,0,0,0,1.25-.94,1.13,1.13,0,0,0-.46-1.34c-.28-.23-.22-.51.08-.69a.83.83,0,0,1,1.32.64c0,.57,0,1.13,0,1.7s-.06.72-.65.88a13.56,13.56,0,0,1-2,.28,2.26,2.26,0,0,0-1.5.61,2.22,2.22,0,0,0,.93,3.61c.17,0,.36,0,.49.18h.9c0-.14.18-.09.28-.1a2.29,2.29,0,0,0,1.79-1.25c.24.9,1,1.09,1.7,1.35h.54c0-.1.11-.09.19-.09a2.09,2.09,0,0,0,2.08-2.32C67.79,103.26,67.87,103.06,67.67,103.06Z"/><path class="cls-1" d="M29.3,105.8a3,3,0,0,0-.83-.27,2.18,2.18,0,0,1-1.62-2.31c0-1.51,0-3,0-4.53,0-.32-.1-.44-.41-.4a2.26,2.26,0,0,1-.45,0c-.12,0-.28,0-.29-.17s0-.31.21-.38a6.24,6.24,0,0,0,2.34-1.62,6.26,6.26,0,0,0,1.19-1.57A.42.42,0,0,1,30,94.3c.25,0,.13.27.13.41,0,.82,0,1.65,0,2.47,0,.33.06.48.43.45a10.14,10.14,0,0,1,1.35,0c.13,0,.4-.13.36.13s0,.55-.41.54-.93,0-1.4,0c-.25,0-.33.06-.33.32,0,1.71,0,3.42,0,5.12,0,1,.56,1.5,1.36,1.36.51-.09.87-.61,1-1.38,0-.16-.05-.39.26-.34a2.07,2.07,0,0,1-1.94,2.32c-.13,0-.3,0-.4.11Z"/><path class="cls-1" d="M44,86a1.87,1.87,0,0,1-.11.48.56.56,0,0,1-.56.43.52.52,0,0,1-.58-.4,9.9,9.9,0,0,1,0-4.3.53.53,0,0,1,.59-.39.62.62,0,0,1,.58.48,12.15,12.15,0,0,1,.17,2.1C44,85,44,85.48,44,86Zm-2.84,5c1.64,0,3.28,0,4.93,0,.38,0,.84,0,1,.57a1,1,0,0,1-.67,1.13,6.8,6.8,0,0,1-2.93.47,6.2,6.2,0,0,1-2-.3,2.66,2.66,0,0,1-.69-.31.88.88,0,0,1-.37-1A.73.73,0,0,1,41.13,91.05Zm17.7-1.71c-.75-.07-.87-.17-.87-1,0-2.09,0-4.19,0-6.29,0-.3-.08-.4-.39-.4-1.31,0-2.61,0-3.91,0h-.28c-.08,0-.15,0-.15.13s0,.15.12.16l.27,0c.9.08,1,.23,1,1.14,0,1.58,0,3.15,0,4.72a1.45,1.45,0,0,1-.35,1,1,1,0,0,1-1,.35.81.81,0,0,1-.71-.65,2.43,2.43,0,0,1-.09-.71c0-1.89,0-3.78,0-5.67,0-.43-.13-.51-.52-.5-1.24,0-2.46,0-3.69,0a1.42,1.42,0,0,1-.49-.07,1.69,1.69,0,0,0-2,.58c-.11.16-.17.18-.33,0a3.62,3.62,0,0,0-3.19-.63,2.8,2.8,0,0,0-2.28,2,2.59,2.59,0,0,0,1,2.87.81.81,0,0,1,.12.14,2.31,2.31,0,0,0-1.72,1.72,2.2,2.2,0,0,0,1.31,2.41c-.21.09-.37.15-.53.23A1,1,0,0,0,40,92.75a1.85,1.85,0,0,0,.8.47,8.5,8.5,0,0,0,2.61.38,7.1,7.1,0,0,0,3.44-.74A2.18,2.18,0,0,0,48.09,91a2.71,2.71,0,0,0-2.73-3c-1.2,0-2.41,0-3.6,0a1.73,1.73,0,0,1-.71-.11.42.42,0,0,1-.3-.4.47.47,0,0,1,.28-.42A1.05,1.05,0,0,1,41.9,87a4,4,0,0,0,2.07.2A2.87,2.87,0,0,0,46.2,83c-.1-.17-.4-.32-.16-.6a1.34,1.34,0,0,1,.58-.42c.08,0,.18-.07.25,0s0,.19-.06.27a.82.82,0,0,0,0,1.11,1.12,1.12,0,0,0,1.21.18.94.94,0,0,0,.51-1c0-.14-.07-.28-.1-.43.61,0,.79.12.82.72.07,1.51,0,3,0,4.54a2.17,2.17,0,0,0,1,1.84,3.35,3.35,0,0,0,4.48-.44,1.9,1.9,0,0,1,0,.42c-.07.46.13.54.55.53,1.17,0,2.33,0,3.51,0,.13,0,.33.09.35-.15S59,89.37,58.83,89.34Z"/><path class="cls-1" d="M46.56,98.61c.75-1.77,4.28-1.45,5,.32.11-.22.22-.41.31-.6a1.24,1.24,0,0,1,.94-.75,3.89,3.89,0,0,1,3,.38,2.08,2.08,0,0,1,1,1.88c0,1.51,0,3,0,4.53,0,.76,0,.76.76.9.1,0,.22,0,.21.16s-.18.16-.3.16H53.1c-.12,0-.26,0-.26-.17s.12-.15.23-.15c.42,0,.55-.23.56-.59,0-1.89.07-3.78,0-5.66,0-.67-.26-.92-.68-1a1.09,1.09,0,0,0-1,.82,2.11,2.11,0,0,0-.13.7c0,1.61,0,3.21,0,4.81,0,.42,0,.85.58.87.09,0,.12.07.12.16s-.06.16-.16.16H48.09c-.13,0-.34.1-.37-.12s.18-.18.31-.19a.46.46,0,0,0,.44-.47,18,18,0,0,0,.05-2.2c0-1.23.06-2.46-.05-3.68,0-.42-.15-.78-.64-.85a.88.88,0,0,0-1,.59,1.94,1.94,0,0,0-.2.86c0,1.65,0,3.3,0,4.94,0,.4,0,.78.54.81a.15.15,0,0,1,.16.17c0,.12-.09.15-.18.15H42.72c-.14,0-.38.11-.39-.15s.22-.15.35-.16c.53-.06.65-.15.67-.7.07-2,.08-3.92,0-5.88,0-.62-.1-.66-.73-.73-.13,0-.34,0-.33-.19s.22-.14.35-.14c1.14,0,2.27,0,3.41,0,.41,0,.58.09.51.51A4,4,0,0,0,46.56,98.61Z"/><path class="cls-1" d="M25.18,85.82c0,.81,0,1.61,0,2.42,0,.65-.3,1-.84,1.1s-.92-.15-1.15-.8A4.73,4.73,0,0,1,23,87.26a16.14,16.14,0,0,1,.13-3.93,2.84,2.84,0,0,1,.24-.73.85.85,0,0,1,1-.54,1,1,0,0,1,.82.9A18.21,18.21,0,0,1,25.18,85.82Zm4.24,3.53c-.77-.06-.92-.2-.93-1,0-3.49,0-7,0-10.47,0-.36-.1-.45-.44-.44-.92,0-1.83,0-2.75,0H23.78c-.1,0-.23,0-.23.13s.11.15.22.16c.26,0,.54,0,.8.09a.64.64,0,0,1,.62.69c0,.34,0,.69,0,1,0,.93,0,1.86,0,2.85-.3-.33-.51-.63-.89-.73A3.66,3.66,0,0,0,20.22,83a5.36,5.36,0,0,0,0,5.34c1.07,1.65,4.07,2,5,.57.06.73.06.73.73.73h3.42c.14,0,.38.1.4-.15S29.56,89.37,29.42,89.35Z"/><path class="cls-1" d="M12.76,82.7a2.38,2.38,0,0,1,2-1.16,3.55,3.55,0,0,1,2.82.91,2,2,0,0,1,.6,1.45c0,1.51,0,3,0,4.54,0,.77,0,.8.82.91.11,0,.22,0,.23.16s-.13.17-.25.17H14.31c-.11,0-.22,0-.23-.14s.08-.19.2-.18c.57,0,.65-.35.65-.8,0-1.73,0-3.45,0-5.17,0-.81-.3-1.21-.87-1.23a1.13,1.13,0,0,0-1.19,1.21c-.09,1.79,0,3.59,0,5.38a.53.53,0,0,0,.57.61c.12,0,.3,0,.28.18s-.2.14-.32.14H8.77c-.13,0-.3,0-.29-.18s.16-.13.27-.14c.73-.08.8-.14.81-.84,0-1.87,0-3.74,0-5.62,0-.73-.06-.76-.78-.86-.13,0-.31,0-.3-.19s.2-.13.31-.13c1.19,0,2.37,0,3.55,0,.34,0,.47.08.42.42A5.61,5.61,0,0,0,12.76,82.7Z"/><path class="cls-1" d="M63.56,82.7a2.38,2.38,0,0,1,2-1.15,3.65,3.65,0,0,1,2.74.75A2,2,0,0,1,69,83.94c0,1.5,0,3,0,4.49,0,.77,0,.81.82.93.11,0,.22,0,.23.14s-.12.18-.25.18H65.12c-.11,0-.22,0-.23-.14s.11-.18.24-.18a.53.53,0,0,0,.59-.58c.07-1.9.1-3.8,0-5.7a.91.91,0,0,0-1.47-.75,1.41,1.41,0,0,0-.6,1.11c0,1.73,0,3.45,0,5.17,0,.4.08.76.61.75.11,0,.26,0,.25.16s-.19.16-.31.16H59.5c-.13,0-.2-.05-.19-.18s.09-.14.19-.14c.82,0,.87-.16.88-1,0-1.72,0-3.44,0-5.16,0-.17,0-.33,0-.49,0-.45-.25-.6-.65-.62-.14,0-.4.07-.39-.17s.28-.15.43-.15c1.12,0,2.24,0,3.36,0,.38,0,.52.09.47.47A3.11,3.11,0,0,0,63.56,82.7Z"/><path class="cls-1" d="M75.15,88.32a.83.83,0,0,1-.54.71.52.52,0,0,1-.8-.37,5.08,5.08,0,0,1,0-2.48.82.82,0,0,1,.43-.53l.87-.44C75.16,86.27,75.18,87.29,75.15,88.32Zm4.63-1.19c-.16,0-.13.13-.13.24a2.68,2.68,0,0,1-.22,1.08.52.52,0,0,1-.53.35.43.43,0,0,1-.39-.43,7.18,7.18,0,0,1-.06-.81c0-1.17,0-2.36,0-3.54a1.89,1.89,0,0,0-1.21-1.92,6,6,0,0,0-5.16.05,2.3,2.3,0,0,0-1,.79A1.22,1.22,0,0,0,72,85a3,3,0,0,0,.94,0,1.45,1.45,0,0,0,1.29-.91,1.15,1.15,0,0,0-.45-1.38c-.3-.24-.22-.53.12-.7a.81.81,0,0,1,1.28.65c.05.54,0,1.08,0,1.62,0,.74-.06.81-.8,1a17.27,17.27,0,0,1-2.26.3,2,2,0,0,0-1.62,1.54,2.19,2.19,0,0,0,.92,2.39,3.07,3.07,0,0,0,4-.87,2.17,2.17,0,0,0,2.33,1.22,2.15,2.15,0,0,0,2.19-2.44C79.9,87.27,79.94,87.13,79.78,87.13Z"/><path class="cls-1" d="M35.52,85.69c0,.73,0,1.46,0,2.19a2.34,2.34,0,0,1-.37,1.24.84.84,0,0,1-1.48,0,2.6,2.6,0,0,1-.33-1.2,32.16,32.16,0,0,1,0-4.39,2.51,2.51,0,0,1,.35-1.23.84.84,0,0,1,1.5,0,2.3,2.3,0,0,1,.32,1c.05.78.07,1.58.1,2.37Zm2.33-2.76a4.78,4.78,0,0,0-4.46-1.3A4.26,4.26,0,0,0,30,84.94a4,4,0,0,0,2,4.27,4.57,4.57,0,0,0,2.31.62A4.64,4.64,0,0,0,38,88.27,3.92,3.92,0,0,0,37.85,82.93Z"/><path class="cls-1" d="M25.77,93.36H21.41c-.12,0-.3-.07-.3.16s.17.13.28.14l.8.08c.81.09,1.16.44,1.18,1.25.05,2.23.08,4.46,0,6.69a4.22,4.22,0,0,1-1,2.76,2.81,2.81,0,0,1-4.19-.14,3.11,3.11,0,0,1-.42-1.81c0-2.42,0-4.85,0-7.27a5.19,5.19,0,0,1,.05-.68c.09-.58.24-.73.83-.8.31,0,.63,0,.94-.08.1,0,.22,0,.23-.14s-.14-.16-.25-.17h-.27c-2.22,0-4.43,0-6.65,0-.23,0-.64-.16-.66.12s.42.2.66.23c.64.1.84.27.9.9a10.51,10.51,0,0,1,.06,1.12q0,3.12,0,6.25a3,3,0,0,0,1.13,2.44,4.76,4.76,0,0,0,1.29.79h0l.07,0,.07,0h0a5.79,5.79,0,0,0,.77.25,2,2,0,0,0,.34.06,5.25,5.25,0,0,0,.62.12l.51.08h.11a8,8,0,0,0,1.62,0h0l.2,0a4.94,4.94,0,0,0,1.17-.31h0a3.38,3.38,0,0,0,2.06-2.67,13.82,13.82,0,0,0,.23-2.72c0-1.64,0-3.27,0-4.9,0-1,.41-1.35,1.36-1.44a5.7,5.7,0,0,0,.58-.06c.12,0,.3,0,.28-.17S25.87,93.38,25.77,93.36Z"/></g></g></svg>